<svg xmlns="http://www.w3.org/2000/svg" viewBox="0 0 24 24" fill="none" stroke="currentColor" stroke-width="1.5" stroke-linecap="round" stroke-linejoin="round">
  <!-- Synthesize: honey dripping into honeycomb — patterns forming -->
  <path d="M12 2 C12 2, 11 5, 12 7"/>
  <path d="M8 3 C8 3, 9 5.5, 10 7"/>
  <path d="M16 3 C16 3, 15 5.5, 14 7"/>
  <!-- Honeycomb below catching drops -->
  <polygon points="8,9 10.5,7.5 13,9 13,12 10.5,13.5 8,12"/>
  <polygon points="13,9 15.5,7.5 18,9 18,12 15.5,13.5 13,12"/>
  <polygon points="5.5,12 8,13.5 8,16.5 5.5,18 3,16.5 3,13.5"/>
  <polygon points="8,12 10.5,13.5 10.5,16.5 8,18 5.5,16.5 5.5,13.5"/>
  <polygon points="13,12 15.5,13.5 15.5,16.5 13,18 10.5,16.5 10.5,13.5"/>
  <polygon points="18,12 20.5,13.5 20.5,16.5 18,18 15.5,16.5 15.5,13.5"/>
  <!-- Bottom drops -->
  <circle cx="8" cy="20" r="0.6" fill="currentColor"/>
  <circle cx="13" cy="21" r="0.8" fill="currentColor"/>
</svg>
