<svg xmlns="http://www.w3.org/2000/svg" viewBox="0 0 24 24" fill="none" stroke="currentColor" stroke-width="1.5" stroke-linecap="round" stroke-linejoin="round">
  <!-- Local: honey pot with lock — self-hosted, own your data -->
  <!-- Pot body -->
  <path d="M7 12 C6 12, 5 13, 5 14.5 C5 17, 6 19, 7.5 20 C9 21.5, 11 22, 12 22 C13 22, 15 21.5, 16.5 20 C18 19, 19 17, 19 14.5 C19 13, 18 12, 17 12Z"/>
  <ellipse cx="12" cy="12" rx="5.5" ry="1.5"/>
  <!-- Lock on pot -->
  <rect x="10" y="15" width="4" height="3.5" rx="0.5"/>
  <path d="M11 15 L11 13.5 C11 12.5, 11.5 12, 12 12 C12.5 12, 13 12.5, 13 13.5 L13 15"/>
  <circle cx="12" cy="17" r="0.5" fill="currentColor"/>
  <!-- Roof / home shape -->
  <path d="M4 8 L12 3 L20 8"/>
  <line x1="6" y1="7" x2="6" y2="10"/>
  <line x1="18" y1="7" x2="18" y2="10"/>
</svg>
