<svg xmlns="http://www.w3.org/2000/svg" viewBox="0 0 24 24" fill="none" stroke="currentColor" stroke-width="1.5" stroke-linecap="round" stroke-linejoin="round">
  <!-- Connect: honeycomb cells linked — knowledge graph -->
  <polygon points="8,5 11,3.5 14,5 14,8.5 11,10 8,8.5"/>
  <polygon points="14,5 17,3.5 20,5 20,8.5 17,10 14,8.5"/>
  <polygon points="5,10 8,8.5 11,10 11,13.5 8,15 5,13.5"/>
  <polygon points="11,10 14,8.5 17,10 17,13.5 14,15 11,13.5"/>
  <polygon points="8,15 11,13.5 14,15 14,18.5 11,20 8,18.5"/>
  <polygon points="14,15 17,13.5 20,15 20,18.5 17,20 14,18.5"/>
</svg>
