<svg xmlns="http://www.w3.org/2000/svg" viewBox="0 0 24 24" fill="none" stroke="currentColor" stroke-width="1.5" stroke-linecap="round" stroke-linejoin="round">
  <!-- Evolve: growing honeycomb — expanding knowledge -->
  <!-- Core filled hex -->
  <polygon points="10,9 12,8 14,9 14,11.5 12,12.5 10,11.5"/>
  <!-- Growing ring -->
  <polygon points="7,6.5 9,5.5 10,6.5 10,9 9,10 7,9"/>
  <polygon points="14,6.5 16,5.5 17,6.5 17,9 16,10 14,9"/>
  <polygon points="5,9 7,8 7,11 5,12 4,11 4,9.5"/>
  <polygon points="17,9 19,8 20,9.5 20,11 19,12 17,11"/>
  <polygon points="7,11 10,11.5 10,14 8,15 6,14 6,12"/>
  <polygon points="14,11.5 17,11 18,12 18,14 16,15 14,14"/>
  <!-- Growth arrows -->
  <path d="M3 7 L2 5"/>
  <path d="M21 7 L22 5"/>
  <path d="M5 16 L3 18"/>
  <path d="M19 16 L21 18"/>
  <circle cx="2" cy="4.5" r="0.5" fill="currentColor"/>
  <circle cx="22" cy="4.5" r="0.5" fill="currentColor"/>
  <circle cx="2.5" cy="18.5" r="0.5" fill="currentColor"/>
  <circle cx="21.5" cy="18.5" r="0.5" fill="currentColor"/>
</svg>
