<svg xmlns="http://www.w3.org/2000/svg" viewBox="0 0 24 24" fill="none" stroke="currentColor" stroke-width="1.5" stroke-linecap="round" stroke-linejoin="round">
  <!-- Surface: honey rising from pot — resurfacing information -->
  <!-- Small pot -->
  <path d="M7 14 C6 14, 5 15, 5 16.5 C5 18.5, 6 20, 7.5 21 C9 22, 11 22, 12 22 C13 22, 15 22, 16.5 21 C18 20, 19 18.5, 19 16.5 C19 15, 18 14, 17 14Z"/>
  <ellipse cx="12" cy="14" rx="5.5" ry="1.5"/>
  <!-- Rising wisps / aroma -->
  <path d="M10 12 C10 10, 11 8, 10 6"/>
  <path d="M14 11 C14 9, 15 7, 14 5"/>
  <path d="M12 10 C12 8, 11 6, 12 3"/>
  <!-- Floating hex nodes emerging -->
  <polygon points="6,4 7.5,3 9,4 9,6 7.5,7 6,6"/>
  <polygon points="15,2 16.5,1 18,2 18,4 16.5,5 15,4"/>
</svg>
